<svg id="logo" xmlns="http://www.w3.org/2000/svg" xmlns:xlink="http://www.w3.org/1999/xlink" width="96.841" height="51.327" viewBox="0 0 96.841 51.327">
  <defs>
    <clipPath id="clip-path">
      <rect id="Rectangle_2" data-name="Rectangle 2" width="96.841" height="51.327" fill="#b60036"/>
    </clipPath>
  </defs>
  <g id="Group_1" data-name="Group 1" transform="translate(0 0)" clip-path="url(#clip-path)">
    <path id="Path_1" data-name="Path 1" d="M169.15,52.878c-2.141.109-4.28.292-6.415.486-.107.01-.374.434-.443.519s-.324.514-.434.523q3.2-.308,6.417-.489a14.251,14.251,0,0,1,2.934-.027c.237.04.653-1.077.873-1.039a14.048,14.048,0,0,0-2.932.025Z" transform="translate(-75.409 -24.589)" fill="#b60036"/>
    <path id="Path_2" data-name="Path 2" d="M85.461,55.337c.072-.085.322-.511.431-.523q-14.72,1.633-29.267,4.549a208.389,208.389,0,0,0-32.6,9A95.2,95.2,0,0,0,8.3,75.822c-.369.224-.511.823-.875,1.042C16.588,71.3,26.913,67.728,37.19,64.835a280.42,280.42,0,0,1,32.466-6.918q7.656-1.2,15.361-2.064c.107-.012.372-.431.444-.516" transform="translate(-3.459 -25.538)" fill="#b60036"/>
    <path id="Path_3" data-name="Path 3" d="M8.983,33.525c-.907.489-1.743.915-2.471,1.266a2.386,2.386,0,0,0,1.122,1.416A45.746,45.746,0,0,0,5.356,41.25c-.614,1.97-2.655,4.35.256,7.472a15.668,15.668,0,0,1,.743-2.8c.065.813.793,1.491,2.675,1.646,1.007.084,10.505-1.4,13-8.768,1.7-5.029-4.151-6.7-6.26-7.137,12.727-5.029,16.86-13.879,13.612-17.4-4.764-5.165-17.027,1-24.909,6.322C-.769,24.119.046,29.012.046,29.012,2.1,24.949,9.212,20.781,15.851,17.986c-.2,2.448-3.894,9.653-6.868,15.539m10.8,3.241C19.648,41.727,5.491,48.251,9.1,42.609a4.6,4.6,0,0,0-2.187,1.7c.885-2.483,2.144-5.708,3.558-9.139,3.123-1.546,9.441-2.969,9.316,1.6Zm6.94-22.1c2.014-.2,2.057,1.436,1.907,2.448C28,21.4,18.878,27.823,11.815,31.937c2.4-5.669,5-11.443,6.866-15.075a37.012,37.012,0,0,1,8.045-2.191" transform="translate(0 -5.739)" fill="#b60036"/>
    <path id="Path_4" data-name="Path 4" d="M46.637,39.063c-2.518,1.835-6.95,14.063-7.553,16.042,0,0,1.358.875,1.875.461.633-.508,4.18-12.358,5.2-13.31.516-.481,2.875-1.737,2.652-.748-.135.613-4.682,10.622-2.313,11.081,2.111.409,4.325-3.3,4.968-3.874a4.668,4.668,0,0,0,1.792,2.361c1.543,1.241,9.982-4.742,9.3-12.285-.2-2.176-1.576-1.543-2.042-2.652-.13-.309-.319-1.576-.631-1.142-1.207,1.685-9.715,14.4-11.757,13.313-.135-4.557,4.968-8.975,4.153-9.79-1.92-1.914-4.724,2.224-5.649.544m13.951-.885c1.122.561-.833,4.488-1.383,5.9-.3.76-2.972,5.592-5.285,4.437-1.68-.837,4.9-11.216,6.669-10.333" transform="translate(-18.209 -16.263)" fill="#b60036"/>
    <path id="Path_5" data-name="Path 5" d="M133.723,7.912s-5.716,7.355-7.01,9.314c-.673,1.022-3.335,3.909-3.809,3.263-1.5-2.039,5.285-9.486,4.7-10.129-.192-.207-1.227-.885-1.565-.409-4.732,6.614-9.8,13.6-12.8,13.323-.6-.055-2.109-.95-1.708-1.361,1.421-1.456,8.242-6.252,9.6-10.737.237-.778,0-1.039-.885-1.291-1.9-.549-7.554,2.65-10.685,10.468-.5,1.244-4.594,4.368-5.377,4.213-1.232-.239-1.2-2.881-.593-3.452,6.038-5.724,11.418-10.819,14.275-18.979C118.356.74,117.11-.33,116.3.094c-8.3,4.352-15.077,21.295-15.79,23.182-1.7,1.563-4.288,3.807-4.9,2.787-.955-1.593,3.635-6.935,3.744-9.042-2.044.409-6.2,6.731-7.215,7.885-.476.543-1.089.135-.952-.135.389-.78,1.972-5.1,1.633-5.709-2.383.541-5.31,5.981-6.4,5.709-.753-.19,1.837-4.078,2.381-5.846.252-.817-.922-.852-1.5-.341-1.907,1.7-5.7,12.325-5.923,14.412l.479.272c.339.2,6.192-10.129,7.621-9.518,1.58.678-2.994,6.664-1.77,9.176,1.907-1.9,5.467-8.553,6.262-8.157.544.275-.818,4.555,0,5.644,1.837-.275,5.854-4.762,6.33-5.1,1.072.793.14,3.116,2.246,3.874,1.7.61,6.068-4.924,6.6-4.759.625.195.787,1.379,1.358,1.718,3.2,1.885,9.274-6.023,9.668-5.729.544.409-.274,3.059,1.224,3.129,1.224.055,3.607-3.059,3.814-1.5.043.344-7.636,13.232-7.284,13.935.274.544.613,2.513,1.5,2.718,1.7-4.418,13.818-27.418,15.182-28.889.473-.516-.309-1.413-.888-1.9Zm-14.9,3.333c1.73,1.072-4.475,7.691-5.445,6.661-1.09-1.156,4.352-7.339,5.442-6.663Zm-3.131-7.888c.544,3.739-8.3,12.033-9.6,12.848-1.291-1.767,6.943-12.235,9.6-12.848m-9.83,13.27-.04.075Z" transform="translate(-37.918 0)" fill="#b60036"/>
  </g>
</svg>
