<svg xmlns="http://www.w3.org/2000/svg" viewBox="0 0 443.55 129.21"><defs><style>.cls-1{isolation:isolate;}.cls-2{fill:#009cdb;}.cls-3,.cls-4{fill:#8bc53f;}.cls-3{mix-blend-mode:multiply;}</style></defs><title>killington-logo</title><g class="cls-1"><g data-name="Layer 2"><g data-name="Layer 1"><path d="M52.9,129.21,52,129c-.52-.1-52-10.4-52-56.77V0H105.9V72.26c0,47.34-51.55,56.7-52.07,56.79l-.93.16ZM10.43,10.43V72.26c0,35,36.07,44.84,42.56,46.32,6.48-1.36,42.46-10.54,42.46-46.32V10.43Z"/><polygon points="25.11 92.25 52.93 70.73 80.76 92.25 25.11 92.25"/><path d="M202.41,66.24c-6,9.53-11.79,18.15-11.79,21.66,0,1.33.42,2.31,1.61,2.31,5.54,0,15-13.32,18-17.52l.56.21a99.39,99.39,0,0,1-9.89,12.41c-4.34,4.41-7.56,6.73-12.05,6.73-3.78,0-5.81-2.38-5.81-6.24,0-4.2,4.06-10.37,9.53-19.55Zm1.52-16.12A4.91,4.91,0,1,1,199,55,4.87,4.87,0,0,1,203.93,50.12Z"/><path d="M235.75,42.4c-18.65,31-25.92,41.21-25.92,46.19a1.48,1.48,0,0,0,1.48,1.62c4.27,0,14-10.8,18.29-17.52l.56.28c-1.83,2.81-12.55,19.06-22,19.06-3.93,0-5.89-2.24-5.89-5.19,0-6.17,5.33-13.32,23.62-44.44Z"/><path d="M255.2,42.4c-18.64,31-25.88,41.21-25.88,46.19a1.48,1.48,0,0,0,1.47,1.62c4.27,0,14-10.8,18.29-17.52l.56.28C247.82,75.77,237.1,92,227.64,92c-3.93,0-5.89-2.24-5.89-5.19,0-6.17,5.33-13.32,23.63-44.44Z"/><path d="M260.89,66.23c-6,9.53-11.8,18.16-11.8,21.67,0,1.33.42,2.31,1.61,2.31,5.54,0,15-13.32,18-17.52l.56.21a99.87,99.87,0,0,1-9.88,12.41C255,89.72,251.82,92,247.34,92c-3.79,0-5.82-2.38-5.82-6.24,0-4.2,4.07-10.38,9.54-19.56Zm1.51-16.11A4.91,4.91,0,1,1,257.5,55,4.87,4.87,0,0,1,262.4,50.12Z"/><path d="M255.39,92l15.06-25.8h9.67c-3.37,4.7-6.35,9.19-9.44,14l.13.14c4.84-6.1,12.27-15.28,19.14-15.28,3.51,0,6.24,1.82,6.24,5.54,0,6.1-9.25,13.53-9.25,17.81a1.58,1.58,0,0,0,1.61,1.75c2,0,4.77-2.17,7.57-5a137.24,137.24,0,0,0,10.51-12.47l.63.35a131,131,0,0,1-10.51,12.68C293,89.65,289.39,92,285.68,92c-4.14,0-6.31-2.73-6.31-6.66,0-6.8,8.83-12.06,8.83-15.91a1.76,1.76,0,0,0-1.9-2c-4.91,0-19.08,18.57-21.75,24.53Z"/><path d="M318.84,65.12c3,0,5.32.77,6.87,4.13l1.54-3h9.48c-4.83,8.27-9.26,15.56-14,23.62,8.62-2.95,15.84-10.31,21.45-17.17l.49.49c-5.68,7.08-13.88,15.07-22.57,17.66-7.15,14.37-19.9,23.06-32.38,23.06-7.72,0-15.63-2.8-15.63-10.23,0-4.83,3.72-8.69,12.9-8.69h4.41l-.51.84h-1c-4.48,0-7.43,2.59-7.43,8.06,0,5,3.15,9.18,8.2,9.18,5.68,0,10.94-4.69,15.49-11.35l10.72-15.63-.13-.14a16.43,16.43,0,0,1-12.2,6.1C300.41,92,298,89,298,84.67,298,75,308.81,65.12,318.84,65.12Zm-9.25,24.11c6,0,13.88-13.31,13.88-19.7,0-2.24-1.33-3.57-3.16-3.57-5.88,0-13.25,12.62-13.25,19.76C307.06,87.48,307.48,89.22,309.59,89.22Z"/><path d="M339.52,67.64l.66-1.39H346l5.79-9.9,9.57,0-6,9.92H365l-.72,1.39h-9.67c-2.59,4.55-10.3,15.56-10.3,20.26,0,1.61,1,2.31,2.52,2.31,7.43,0,17.45-13.53,21-17.66l.56.28C362,80.39,354.39,92,343.1,92c-4.27,0-6.38-2.53-6.38-6.17s1.83-6.58,8.48-18.22Z"/><path d="M405.69,73.18c-.77.77-3.43,4-7.22,4a7.36,7.36,0,0,1-5.89-3.22h-.14c0,9.81-10,18.08-20.32,18.08-6.23,0-12.06-2.38-12.06-9.53,0-10.73,11.08-17.38,20.89-17.38,12.06,0,10.45,11.21,17.53,11.21,2.1,0,4.56-1.27,6.66-3.71ZM367.63,87.62c0,2.17,1.05,3.57,2.8,3.57,6.73,0,14.44-15.07,14.44-21.66,0-2.17-1.05-3.57-2.81-3.57C375.34,66,367.63,81,367.63,87.62Z"/><path d="M391.7,92l15.07-25.79h9.67c-3.37,4.7-6.39,9.18-9.48,14l.14.14c4.84-6.1,12.26-15.28,19.14-15.28,3.5,0,6.23,1.82,6.23,5.54,0,6.1-9.25,13.53-9.25,17.81a1.58,1.58,0,0,0,1.61,1.75c2,0,4.76-2.17,7.57-5a137.9,137.9,0,0,0,10.52-12.47l.63.35A131.3,131.3,0,0,1,433,85.79C429.25,89.65,425.68,92,422,92c-4.14,0-6.31-2.73-6.31-6.66,0-6.8,8.83-12.06,8.83-15.91a1.75,1.75,0,0,0-1.89-2c-4.9,0-19.13,18.57-21.8,24.53Z"/><path d="M190.06,53.6c4.87-5.65,7.31-12.53,12.06-14.44l.53-.88c-6.56.35-14.73,3.53-21.34,12.5-7.79,10.53-11.94,12.53-20,12.53-.59,0-.82.15-.82.44s.52.44,1.11.44c2.82,0,4.67,1.19,4.67,3.93,0,4.37-6.52,11.64-6.52,17.28,0,4.6,2.89,7,7.49,7,6,0,10.3-2.52,14.9-7a94.73,94.73,0,0,0,10.38-12.6l-.67-.52a119.79,119.79,0,0,1-9.12,11.27c-4,4.23-7.71,6.67-10.45,6.67-1.63,0-2.45-1-2.45-2.67,0-3,3.56-8.3,3.56-12.46,0-5.71-4.23-8.52-8.75-10.83v-.15C177.53,62.94,183.61,61.09,190.06,53.6Z"/><path d="M179.4,38.29c-11.94,0-57.47,1.45-57.47,21.39,0,5.93,4.08,9.57,9.86,9.57a18.77,18.77,0,0,0,4.72-.73l.33-.54c-3.78,0-7.34-4-7.34-7.86,0-9.56,12.39-20.8,49.68-20.94v.15c-8.67,1.56-20.69,7.45-28.55,21.09-10.31,17.79-15.79,30.84-27.36,31.07h-.67c-.17.31-.37.61-.56.92,26.62,0,33.85-24.81,44.15-40.3,5.54-8.34,11.68-12.19,14.83-13l.51-.84C180.95,38.3,179.91,38.29,179.4,38.29Z"/><polygon class="cls-2" points="58.75 42.24 80.76 42.24 80.76 25.13 52.94 25.13 25.11 25.13 25.11 42.24 47.13 42.24 58.75 42.24"/><polygon class="cls-3" points="47.13 42.24 58.76 42.24 65.55 42.24 52.97 32.67 40.37 42.24 47.13 42.24"/><polygon class="cls-4" points="58.76 42.24 47.13 42.24 40.37 42.24 25.12 53.84 25.12 72.99 52.94 51.46 80.77 72.99 80.77 53.84 65.55 42.24 58.76 42.24"/></g></g></g></svg>
