<svg width="98" height="56" viewBox="0 0 98 56" fill="none" xmlns="http://www.w3.org/2000/svg"><path d="M84.961 11.739 48.866 0 12.77 11.739C4.778 14.334 0 20.415 0 28.005c0 7.58 4.778 13.661 12.77 16.256L48.866 56 84.96 44.261c7.992-2.606 12.77-8.676 12.77-16.256 0-7.59-4.778-13.671-12.77-16.266Z" fill="#000"/><path d="M13.15 43.11C5.668 40.678 1.205 35.032 1.205 27.995c0-7.037 4.463-12.684 11.945-15.116 0 0 35.64-11.597 35.716-11.62.076.023 35.726 11.62 35.726 11.62 7.47 2.432 11.945 8.08 11.945 15.116S92.074 40.678 84.592 43.11c0 0-34.923 11.358-35.715 11.619-.087-.022-35.727-11.62-35.727-11.62Z" fill="#fff"/><path d="m84.255 13.889-35.39-11.51-35.389 11.51c-7.124 2.323-11.217 7.46-11.217 14.116 0 6.646 4.083 11.793 11.217 14.117l35.39 11.5 35.39-11.51c7.123-2.325 11.216-7.46 11.216-14.117 0-6.646-4.093-11.793-11.217-14.106Z" fill="#000"/><path d="m83.766 40.591-34.9 11.348s-24.759-8.047-34.89-11.348c-6.538-2.128-10.11-6.798-10.11-12.586 0-5.787 3.572-10.457 10.11-12.585C24.107 12.108 48.866 4.06 48.866 4.06s24.758 8.047 34.9 11.348c6.538 2.128 10.11 6.798 10.11 12.585-.01 5.8-3.572 10.469-10.11 12.597Z" fill="#FF1300"/><path d="M46.78 43.718h.12c.37 0 .478.055.522.109.01.022.021.043.021.065a.658.658 0 0 1-.065.239s-.706 1.618-.977 2.248c-.174-.413-.967-2.248-.967-2.248a.858.858 0 0 1-.076-.25c0-.021 0-.043.011-.065.033-.043.152-.108.521-.108h.12v-.467h-2.77v.467h.12c.543 0 .62.13.836.608l1.716 3.93h.315l1.705-3.93c.228-.51.358-.608.836-.608h.12v-.467H46.78v.477ZM54.013 43.252h-4.908l-.087 1.324h.456l.065-.25c.087-.347.12-.499.771-.499h.652v3.03c0 .738-.066.782-.609.782h-.119v.466h2.682v-.466h-.12c-.553 0-.618-.044-.618-.782v-3.03h.651c.652 0 .695.141.782.5l.065.25h.446l-.109-1.325Z" fill="#000"/><path d="M43.675 24.933a38.476 38.476 0 0 0-1 4.68l-.01.065h2.117l-.01-.065a38.458 38.458 0 0 0-1-4.68l-.054-.185-.043.184Zm7.178 12.26v.922c-3.453 0-5.343-2.03-5.712-5.603L45 31.242h-2.52v.054c-.097.88-.173 1.748-.217 2.584h-2.03c.152-3.105.695-6.515 1.498-9.36.01-.054.022-.109.022-.152a.59.59 0 0 0-.141-.38.892.892 0 0 0-.663-.38v-.934h5.69v.934c-.282.01-.5.163-.662.38a.658.658 0 0 0-.141.38c0 .054.01.108.022.163.51 1.813.836 3.822 1.096 5.788.076.543.163 1.411.228 1.987.304 3.138 1.108 4.886 3.67 4.886ZM68.553 28.255c0-3.333 1.564-5.853 3.638-5.853s3.638 2.52 3.638 5.853c0 3.334-1.564 5.853-3.638 5.853-2.074.011-3.638-2.508-3.638-5.853Zm2.074 0c0 2.28.674 3.996 1.564 3.996s1.564-1.715 1.564-3.996c0-2.28-.674-3.996-1.564-3.996-.89.011-1.564 1.727-1.564 3.996ZM26.594 22.685v2.682h-.924v-.271c0-.5-.412-.913-.912-.913h-.77v7.873c0 .489.38.869.857.901v.934h-3.757v-.934a.905.905 0 0 0 .858-.9v-7.874h-.76c-.5 0-.912.413-.912.913v.271h-.923v-2.682h7.243ZM57.173 22.685v2.682h-.923v-.271c0-.5-.413-.913-.912-.913h-.771v7.873c0 .489.38.869.858.901v.934h-3.758v-.934a.905.905 0 0 0 .858-.9v-7.874h-.75c-.499 0-.911.413-.911.913v.271h-.923v-2.682h7.232ZM66.49 22.685v2.682h-.923v-.271c0-.5-.413-.913-.912-.913h-.772v7.873c0 .489.38.869.858.901v.934h-3.757v-.934a.905.905 0 0 0 .858-.9v-7.874h-.76c-.5 0-.912.413-.912.913v.271h-.923v-2.682h7.243ZM86.634 22.685v1.51a.905.905 0 0 0-.858.9v8.796h-1.9c-.033-.065-2.433-6.048-2.433-6.048l-.109.021v6.016h-2.899v-.934a.905.905 0 0 0 .858-.9v-6.95a.905.905 0 0 0-.858-.902v-1.51h2.758c.033.066 2.433 6.038 2.433 6.038l.108-.021v-6.027c.109.01 2.791.01 2.9.01ZM10.903 32.87a3.33 3.33 0 0 0 2.595 1.25 3.346 3.346 0 0 0 3.344-3.345c0-1.14-.575-2.172-1.444-2.77l-1.976-1.368a1.194 1.194 0 0 1-.521-.988 1.21 1.21 0 0 1 1.205-1.205 1.2 1.2 0 0 1 1.162.912h.923v-2.194a3.213 3.213 0 0 0-2.085-.76 3.26 3.26 0 0 0-3.258 3.258c0 1.108.565 2.117 1.412 2.693l1.965 1.357c.337.229.565.62.565 1.065 0 .716-.586 1.292-1.292 1.292a1.299 1.299 0 0 1-1.281-1.119h-1.325v1.922h.01ZM36.704 32.523c-.446-.956-1.162-2.193-1.825-3.03l-.032-.043.043-.033c.934-.673 1.64-1.89 1.64-3.247 0-1.541-.739-2.91-1.879-3.485h-5.234v1.51a.905.905 0 0 1 .858.9v6.961c0 .489-.38.869-.858.901v.934h2.9v-4.213c.923.717 2.378 2.53 2.769 4.213h2.334v-.934c-.293-.021-.608-.195-.716-.434Zm-3.226-4.637h-1.161v-3.453h1.161c.478 0 1.021.739 1.021 1.727 0 .988-.532 1.726-1.02 1.726Z" fill="#fff"/><path d="M52.536 12.857c.217.304.402.608.554.89.554 1.054.326 2.064-.619 2.77-.662.5-1.52.532-2.063.358a.3.3 0 0 0-.337.087c-.934.999-2.248 1.433-3.681 1.15a2.62 2.62 0 0 1-1.716-1.204c-.467-.75-.597-1.716-.347-2.65.108-.402.271-.814.51-1.249a1.298 1.298 0 0 1-.402-.369 1.785 1.785 0 0 1-.304-.793 4.139 4.139 0 0 1-.032-.803c.021-.391.12-.771.271-1.065.228-.456.597-.738 1.01-.792.043-.391.152-.782.326-1.086.271-.5.706-.793 1.183-.793.12 0 .24.011.359.044.054-.142.12-.283.195-.402.424-.706.978-.793 1.26-.793.63.022 1.118.456 1.357 1.173.185-.065.348-.065.467-.065.793.054 1.336.782 1.39 1.867h.033c.749.077 1.238.782 1.238 1.792 0 .098 0 .608-.087.956-.13.5-.337.792-.565.977Zm-7.427 1.607c-.359 1.368.325 2.628 1.433 2.845.217.044.532-.065.423-.369-.206-.565-.086-1.02.315-1.466-.239.554 0 1.27.62 1.097.575-.163.531-.597.108-1.477-.358-.738 0-1.911.738-2.27-.868.663-.315 2.4.663 2.26.608-.088.695-.522.456-1.032.478.304.586.988.456 1.476-.076.272.032.467.358.576.293.087.88.087 1.314-.239.543-.402.793-.945.38-1.726-.532-1.01-1.661-2.324-2.606-2.976-1.086-.76-2.02-.64-2.91.402-.869.988-1.499 1.987-1.748 2.9Zm3.561-7.482c-.423-.01-.738.63-.825 1.282a3.834 3.834 0 0 0-.022.782c.033.347.163.857.717.857.51 0 .728-.25.825-.814.044-.271.033-.728.011-.945-.043-.51-.25-1.15-.706-1.162Zm-1.78 1.14c-.38 0-.652.587-.706 1.184a3.83 3.83 0 0 0 0 .706c.043.315.173.76.673.75.467-.011.651-.25.717-.76.032-.24.01-.663-.011-.859-.055-.445-.26-1.02-.674-1.02ZM45.51 9.99c-.336.011-.564.554-.597 1.086-.01.196 0 .467.022.64.043.283.184.685.63.663.412-.021.575-.25.619-.716a3.52 3.52 0 0 0-.044-.771c-.054-.413-.26-.923-.63-.902Zm4.952-1.9c-.402-.022-.728.576-.825 1.195a4.46 4.46 0 0 0-.054.738c.021.326.13.814.651.836.489.022.695-.217.804-.75.054-.249.054-.694.043-.9-.01-.467-.185-1.086-.619-1.119Zm1.39 1.879c-.337-.033-.64.467-.738.999a3.357 3.357 0 0 0-.066.63c0 .282.087.705.532.738.413.032.609-.163.717-.62.055-.216.065-.585.065-.77 0-.413-.13-.945-.51-.977Z" fill="#000"/></svg>
