<svg viewBox="0 0 163.65 77.22"
     xmlns="http://www.w3.org/2000/svg">
    <g fill="#000">
        <path d="m100.58 31.89 3.48-.69-9-4.31 7.81-6.39-9.87.5 4-9.39-8.56 5.18-.65-10.26-5.25 8.69-5.19-8.76-.73 10.21-8.55-5.27 4 9.39-9.94-.57 7.74 6.42-9.07 4.27 2.87.58 13.79-6.41a3.31 3.31 0 0 1 1.1-.21 2.9 2.9 0 0 1 1.1.24l7.47 3.49 2-.76a4.16 4.16 0 0 1 .86-.12 2.81 2.81 0 0 1 .62.06l10 4.11z" />
        <path d="m56.66 35.06a27.09 27.09 0 0 1 -1-7.37c.03-15.29 12.05-27.69 26.88-27.69s26.85 12.4 26.85 27.69a28.67 28.67 0 0 1 -1 7.41l-2.47-1.1a25.83 25.83 0 0 0 .79-6.33c0-13.76-10.82-24.92-24.17-24.92s-24.16 11.18-24.16 24.94a24 24 0 0 0 .71 6l-2.43 1.34z" />
        <path d="m52.77 39.58 25.53-11.85 8.36 3.88 2.98-1.09 22.12 9.06z" />
        <path d="m10 55.24a14.87 14.87 0 0 0 -.65-3.31c-.36-.81-1.14-1.2-2.47-1.2a2.92 2.92 0 0 0 -3.15 3.09c0 2.27 1.89 3 4.16 4 2.56 1.18 4.64 2.18 4.64 5.47 0 3.93-2.95 6.56-7.37 6.56a10.69 10.69 0 0 1 -5.16-1.36l.33-5.88h1.78v1.23c0 2.8.91 3.93 3.37 3.93a3.27 3.27 0 0 0 3.61-3.41c0-2.17-1.59-3-3.8-4-2.63-1.2-5-2.17-5-5.52 0-3.8 3-6.13 7.4-6.13a16.12 16.12 0 0 1 4 .55l-.33 6z" />
        <path d="m74.36 67.34c0 .33.1.41.74.5l1.77.29v1.4c-.66-.06-2.12-.11-2.75-.11s-2 0-2.56.11a4.05 4.05 0 0 1 -.32-1.27l-.12-.07a6.91 6.91 0 0 1 -4.12 1.66c-2.3 0-3.18-2.24-3.18-4.22a1.85 1.85 0 0 1 .83-1.63 21.24 21.24 0 0 1 6.56-3v-.87c0-2.18-.52-3-2.08-3a6.82 6.82 0 0 0 -3.53 1.23l-.78-1.26c2.43-1.66 4.51-2.47 6.26-2.47 2.6 0 3.25 1.59 3.25 4.25 0 1.49-.1 3.06-.1 4.51 0 1.91.09 3.61.13 3.95zm-3.15-4.18c-2.56.26-3.93 1.11-3.93 2.7 0 1.07.52 1.72 1.5 1.72 1.84 0 2.43-1.53 2.43-3.18z" />
        <path d="m86.37 60.6a12.72 12.72 0 0 0 1.07-3.44c0-.3-.13-.42-.71-.55l-1.23-.26v-1.4c1.08.07 2.05.1 3.09.1s1.88 0 3-.1v1.4l-1.4.22c-.65 1.72-1.59 4-2.31 5.65-.81 1.92-3.53 8.67-4.18 10.33-.52 1.36-1.4 3.5-1.69 4a1.29 1.29 0 0 1 -1.2.68 3.69 3.69 0 0 1 -2.37-1.43 21.44 21.44 0 0 0 4-5.81l-4.57-12.28c-.3-.81-.56-1.17-1.07-1.27l-.55-.09v-1.35c1.29.07 2.33.1 3.53.1s2.27 0 3.54-.1v1.4l-1.32.21c-.55.13-.72.22-.72.52a2.31 2.31 0 0 0 .2.81l.62 1.81c.64 1.72 1.52 4.25 2.11 6h.1z" />
        <path d="m121.71 47.42-1.07 4.8-1.79.56-1.36-4.78 3.7-1.07z" />
        <path d="m131.87 65.89c.65-1.72 1.69-4.32 2-5.29a14.31 14.31 0 0 0 1.13-3.41c0-.36-.13-.45-.72-.58l-1.28-.26v-1.35c1 .07 2.07.1 3.11.1s2 0 3-.1v1.4l-1.4.22c-.68 1.82-1.68 4.26-2.43 6-.81 1.94-2 5.06-2.73 7h-2.79l-4.35-11.88c-.35-.94-.49-1.17-1.07-1.27l-.55-.09v-1.38c1 .07 2.17.1 3.54.1s2.14 0 3.47-.1v1.4l-1.3.26c-.55.13-.68.22-.68.55a1.92 1.92 0 0 0 .2.71l.9 2.6c.56 1.49 1.3 3.7 1.82 5.42z" />
        <path d="m151.25 67.09c-2.5 2-4.22 2.76-6.26 2.76-3.48 0-5.78-2.86-5.78-7.27 0-4.77 2.66-7.92 6.59-7.92a4.67 4.67 0 0 1 5 5 9.29 9.29 0 0 1 -.16 1.78h-8.15v.56c0 3.38 1.52 5.1 4.35 5.1a7.26 7.26 0 0 0 3.7-1.07zm-4-7.72a4.37 4.37 0 0 0 0-.59 2 2 0 0 0 -2-2.17c-1.56 0-2.37 1.1-2.69 3.14z" />
        <path d="m32.88 59.14c0-.84 0-1.53 0-2s-.09-.33-.77-.46l-1.27-.19v-1.4l5.48-.22v1.49h.1a9.37 9.37 0 0 1 5.1-1.72c2.89.02 3.48 2.13 3.48 5.36v5.49c0 1 0 1.42.06 2 0 .33.1.33.75.42l1.23.23v1.39c-1.36-.06-2.43-.09-3.79-.09s-2.41 0-3.7.09v-1.4l1.13-.23c.65-.13.75-.09.78-.42 0-.62.07-1 .07-2v-4.72c0-2.66-.56-3.7-2.37-3.7a2.57 2.57 0 0 0 -2.28 1.17 5.32 5.32 0 0 0 -.56 2.77v4.45c0 1 0 1.42.07 2 0 .33.1.29.75.42l1.16.23v1.39c-1.36-.06-2.36-.09-3.7-.09s-2.49 0-3.79.09v-1.36l1.26-.23c.65-.09.72-.09.75-.42 0-.62.06-1 .06-2z" />
        <path d="m103.84 58.46h.32c3.34 0 5.13-1.5 5.13-4.19 0-3.05-2.56-3.67-5.45-3.67zm14.3.68c0-.84 0-1.53 0-2s-.1-.33-.78-.46l-1.27-.19v-1.4l5.52-.22v10.63c0 1 0 1.43.07 2 0 .33.1.33.74.43l1.27.22v1.33c-1.37-.06-2.66-.09-3.69-.09s-2.89.1-3.74.1c-3.42 0-5.67-2.12-8-5.81-.43-.69-1-1.6-1.5-2.41a2.6 2.6 0 0 0 -2.69-1.27h-.23v5.36c0 1 0 1.42.06 2 0 .33.1.33.75.43l1.72.22v1.49c-1.37-.06-3-.12-4.35-.12s-3 .06-4.29.12v-1.5l1.69-.22c.65-.1.75-.1.78-.43 0-.62.06-1 .06-2v-14.72c-.81 0-1.65.07-2.46.1v-1.62a48.89 48.89 0 0 1 5.52-.23 21.62 21.62 0 0 1 7.08.78 3.84 3.84 0 0 1 2.59 3.8c0 2.6-1.49 4.28-3.51 5.64a31.22 31.22 0 0 0 3.7 5.95c1.76 2.11 3 3 3.83 3a3.24 3.24 0 0 0 .63-.07c.29-.08.42-.15.44-.41 0-.61.06-1 .06-2z" />
        <path d="m157.84 57.94h.16c.85-1.88 1.79-3.31 2.89-3.31a5.76 5.76 0 0 1 2.21.49.79.79 0 0 1 .55.74 5.66 5.66 0 0 1 -.84 2.28 4.64 4.64 0 0 0 -2.05-.46c-1.39 0-2.37 1.17-2.66 2.86a11.32 11.32 0 0 0 -.16 2.5v2.37c0 1 0 1.42.06 2 0 .33.13.36.75.42l2.14.23v1.39c-1.52-.09-2.66-.09-4.41-.09s-2.57 0-4.06.09v-1.32l1.27-.23c.64-.09.71-.09.74-.42 0-.62.07-1 .07-2v-6.3c0-.85 0-1.53 0-2 0-.32-.1-.32-.78-.45l-1.26-.2v-1.45l5.41-.22z" />
        <path d="m27.72 65.43c0 1 0 1.43.07 2 0 .33.09.33.74.43l1.13.22v1.4c-.67 0-1.61-.1-2.42-.1s-1.75 0-2.52.1a5 5 0 0 1 -.34-1.26l-.16-.07a9.45 9.45 0 0 1 -4.84 1.66c-2.38.04-3.38-1.45-3.38-5.22v-5.45c0-.85 0-1.53 0-2 0-.3-.09-.33-.77-.46l-1.23-.21v-1.39l5.49-.23v8.8c0 2.92.51 3.8 2.1 3.8a2.6 2.6 0 0 0 2.28-1.14 5 5 0 0 0 .45-2.63v-4.54c0-.85 0-1.53 0-2s-.1-.33-.78-.46l-1.27-.2v-1.4l5.52-.23z" />
        <path d="m54.62 67.45a2.63 2.63 0 0 0 2.21-1c.52-.68.59-1.53.59-3v-5.71a5.13 5.13 0 0 0 -2.57-.68c-1.88 0-3 1.82-3 5.39s.85 5 2.73 5zm3.24 2.07a4 4 0 0 1 -.35-1.26l-.13-.07a9.09 9.09 0 0 1 -4.93 1.66c-2.69 0-4.16-2.24-4.16-6.33 0-5.06 2.7-8.86 6.27-8.86a7.5 7.5 0 0 1 2.86.65v-.56a48.65 48.65 0 0 0 -.65-8.08 13.61 13.61 0 0 0 3.77-1.13l.72.52c-.16 1.57-.37 5.06-.37 8.49v10.79c0 1 0 1.42.07 2 0 .33.09.41.74.5l1.47.25v1.39c-.66 0-2.13-.1-2.76-.1s-1.66.07-2.55.14z" />
    </g>
</svg>